Six Nations Forum - Red Button

Join John Inverdale and the team for analysis and comment on today's Six Nations matches. 


General
Complete name: 2013.03.10.6N.Red.Button.Forum.pdtv.x264.mp4
Format : MPEG-4
Format profile : Base Media
Codec ID : isom
File size: 167 MiB
Duration : 30mn 2s
Overall bit rate mode: Variable
Overall bit rate : 777 Kbps

Video
ID : 1
Format : AVC
Format/Info: Advanced Video Codec
Format profile : High@L3.1
Format settings, CABAC : Yes
Format settings, ReFrames: 5 frames
Codec ID : avc1
Codec ID/Info: Advanced Video Coding
Duration : 30mn 2s
Bit rate : 645 Kbps
Maximum bit rate : 3 112 Kbps
Width: 720 pixels
Height : 416 pixels
Display aspect ratio : 1.731
Frame rate mode: Constant
Frame rate : 25.000 fps
Color space: YUV
Chroma subsampling : 4:2:0
Bit depth: 8 bits
Scan type: Progressive
Bits/(Pixel*Frame) : 0.086
Stream size: 139 MiB (83%)
Writing library: x264 core 130 r2273 b3065e6

Audio
ID : 2
Format : AAC
Format/Info: Advanced Audio Codec
Format profile : LC
Codec ID : 40
Duration : 30mn 2s
Bit rate mode: Variable
Bit rate : 128 Kbps
Maximum bit rate : 149 Kbps
Channel(s) : 2 channels
Channel positions: Front: L R
Sampling rate: 48.0 KHz
Compression mode : Lossy
Delay relative to video: 80ms
Stream size: 27.5 MiB (16%)

